<svg xmlns="http://www.w3.org/2000/svg" width="1509.333" height="1509.333" preserveAspectRatio="xMidYMid meet" version="1.0" viewBox="0 0 1132 1132"><metadata>Created by potrace 1.14, written by Peter Selinger 2001-2017</metadata><g fill="#000" stroke="none"><path d="M51 10158 c28 -46 58 -94 67 -108 9 -14 16 -28 15 -31 -1 -4 7 -15 17 -24 11 -10 20 -23 20 -30 0 -6 8 -20 18 -31 9 -11 24 -32 32 -47 39 -71 134 -222 142 -225 4 -2 8 -8 8 -14 0 -6 16 -35 35 -64 19 -29 35 -57 35 -62 0 -6 4 -12 8 -14 4 -1 39 -55 77 -118 38 -63 72 -117 76 -120 3 -3 17 -25 30 -49 24 -43 28 -50 60 -101 89 -141 119 -190 119 -199 0 -5 4 -11 8 -13 5 -1 64 -94 133 -205 68 -112 136 -222 152 -245 15 -24 33 -55 39 -70 7 -16 16 -28 20 -28 4 0 8 -7 8 -15 0 -8 5 -15 10 -15 6 0 10 -4 10 -9 0 -5 27 -52 60 -104 33 -53 60 -99 60 -102 0 -3 9 -15 20 -27 11 -12 20 -28 20 -35 0 -7 4 -13 9 -13 5 0 11 -8 14 -17 6 -18 37 -73 47 -83 3 -3 10 -14 17 -25 48 -80 98 -161 103 -165 5 -5 21 -32 44 -75 6 -11 28 -46 49 -78 20 -31 37 -62 37 -67 0 -6 4 -10 10 -10 5 0 12 -11 16 -25 3 -14 10 -25 14 -25 4 0 15 -15 24 -32 9 -18 37 -64 62 -103 24 -38 50 -81 57 -95 6 -14 17 -30 23 -37 7 -7 28 -41 49 -75 53 -92 83 -141 95 -158 13 -18 300 -484 321 -520 8 -14 16 -27 19 -30 3 -3 10 -14 17 -25 35 -61 258 -421 262 -425 7 -5 26 -38 50 -85 9 -16 18 -32 21 -35 3 -3 20 -28 39 -57 l32 -52 28 32 c15 18 42 52 61 77 19 24 45 55 58 69 12 13 39 46 59 73 21 26 41 48 45 48 4 0 8 6 8 14 0 8 3 16 8 18 4 2 27 28 52 58 25 30 47 57 50 60 3 3 32 39 65 80 73 91 96 119 113 136 6 7 12 17 12 23 0 6 3 11 8 11 4 0 26 24 48 53 23 28 53 66 67 82 23 27 53 64 167 205 19 24 60 74 90 111 30 37 69 84 85 105 17 20 39 47 50 60 11 12 34 39 50 60 17 20 36 43 43 50 6 7 12 16 12 20 0 4 8 13 18 20 10 8 12 13 5 14 -7 0 -13 6 -13 14 0 7 -7 19 -15 26 -8 7 -13 16 -10 20 3 5 1 10 -3 12 -9 3 -17 17 -96 155 -22 37 -42 70 -45 73 -6 5 -12 16 -53 89 -11 20 -26 43 -34 52 -8 8 -14 20 -14 25 0 5 -16 33 -35 61 -19 29 -35 57 -35 63 0 5 -4 10 -10 10 -5 0 -10 4 -10 10 0 5 -31 61 -70 125 -38 64 -70 118 -70 121 0 3 -6 11 -12 19 -11 11 -47 71 -163 270 -11 18 -43 72 -71 119 -29 47 -49 87 -45 87 3 1 1123 2 2488 3 l2482 1 -31 -55 c-17 -30 -44 -74 -60 -98 -15 -24 -28 -45 -28 -48 0 -2 -29 -52 -65 -109 -36 -58 -65 -110 -65 -115 0 -6 -5 -10 -11 -10 -5 0 -7 -4 -4 -10 3 -5 3 -10 -2 -10 -4 0 -17 -18 -27 -40 -11 -22 -22 -40 -26 -40 -3 0 -12 -16 -20 -35 -8 -19 -17 -35 -22 -35 -4 0 -8 -7 -8 -15 0 -8 -4 -15 -9 -15 -5 0 -12 -9 -16 -19 -3 -11 -30 -59 -61 -108 -30 -48 -57 -95 -61 -103 -4 -8 -23 -40 -42 -70 -20 -30 -36 -57 -36 -60 0 -3 -21 -39 -46 -80 -123 -199 -309 -514 -309 -521 0 -5 -5 -9 -11 -9 -5 0 -7 -5 -4 -10 3 -6 -1 -13 -9 -16 -9 -3 -13 -10 -10 -15 3 -5 0 -9 -5 -9 -6 0 -11 -4 -11 -9 0 -6 -38 -73 -85 -151 -47 -78 -85 -145 -85 -151 0 -5 -4 -9 -10 -9 -5 0 -10 -4 -10 -8 0 -7 -179 -313 -229 -392 -9 -14 -97 -160 -131 -219 -9 -14 -28 -45 -43 -68 -15 -24 -27 -47 -27 -53 0 -5 -3 -10 -8 -10 -4 0 -13 -13 -20 -30 -7 -16 -24 -45 -37 -64 -13 -20 -35 -55 -48 -78 -50 -89 -72 -123 -79 -126 -4 -2 -8 -8 -8 -14 0 -11 -69 -126 -88 -146 -7 -8 -10 -17 -7 -22 3 -5 1 -10 -3 -12 -5 -1 -28 -37 -52 -78 -24 -41 -47 -76 -52 -78 -4 -2 -8 -12 -8 -23 0 -11 -7 -22 -15 -25 -8 -4 -15 -11 -15 -16 0 -6 -40 -77 -90 -159 -49 -81 -90 -153 -90 -159 0 -5 -3 -10 -8 -10 -4 0 -16 -17 -27 -37 -11 -21 -45 -79 -76 -129 -31 -50 -58 -95 -60 -100 -14 -33 -75 -124 -82 -121 -8 2 -49 68 -77 122 -6 11 -30 53 -55 93 -25 41 -45 78 -45 83 0 5 -4 9 -9 9 -5 0 -12 11 -15 25 -4 14 -11 25 -16 25 -6 0 -10 4 -10 9 0 5 -22 46 -50 90 -28 44 -50 85 -50 91 0 5 -4 10 -8 10 -4 0 -20 24 -36 53 -15 28 -47 84 -72 122 -24 39 -47 77 -51 85 -16 31 -77 135 -82 140 -3 3 -12 16 -19 29 -8 13 -23 40 -34 60 -11 20 -28 47 -37 61 -33 51 -41 66 -52 90 -5 13 -16 28 -22 32 -7 4 -479 8 -1049 8 l-1038 0 62 -102 c35 -57 65 -105 68 -108 3 -3 11 -15 18 -27 31 -56 38 -68 55 -87 9 -11 17 -23 17 -28 0 -4 36 -64 80 -134 44 -69 80 -127 80 -129 0 -2 13 -24 30 -48 16 -25 30 -48 30 -51 0 -4 5 -12 10 -19 15 -17 127 -197 185 -295 6 -9 37 -60 69 -112 122 -196 156 -252 156 -260 0 -5 4 -10 8 -12 7 -3 28 -36 99 -153 7 -11 20 -35 29 -53 10 -17 21 -32 26 -32 4 0 8 -4 8 -9 0 -5 39 -72 86 -148 48 -76 94 -150 103 -165 9 -14 49 -80 89 -145 40 -65 78 -127 85 -138 7 -11 24 -39 39 -62 16 -23 28 -46 28 -51 0 -5 7 -15 15 -22 8 -7 21 -24 28 -39 22 -44 41 -74 60 -95 9 -11 17 -23 17 -27 0 -4 27 -50 60 -102 33 -53 60 -101 60 -106 0 -6 3 -11 8 -11 4 0 16 -17 27 -37 11 -21 23 -42 28 -48 22 -29 137 -218 137 -226 0 -5 5 -9 10 -9 6 0 10 -5 10 -10 0 -6 12 -29 27 -53 47 -72 52 -81 59 -99 3 -10 10 -18 14 -18 4 0 10 -8 14 -17 3 -10 37 -67 76 -128 38 -60 84 -135 102 -165 17 -30 35 -56 40 -58 4 -2 8 -7 8 -12 0 -4 25 -48 55 -96 31 -49 60 -96 65 -104 5 -8 48 -77 95 -153 47 -76 85 -142 85 -147 0 -6 4 -10 8 -10 5 0 16 -15 25 -32 19 -37 31 -57 142 -235 44 -70 83 -134 86 -142 5 -14 116 146 111 162 -1 4 2 7 8 7 5 0 10 6 10 14 0 8 3 16 8 18 4 1 14 15 22 29 8 14 52 86 98 160 46 74 88 143 95 154 7 11 23 38 37 60 14 22 32 52 39 68 8 15 18 27 23 27 4 0 8 4 8 9 0 5 40 74 90 152 49 79 99 162 111 184 12 22 24 42 28 45 8 6 71 110 71 116 0 3 11 20 25 38 14 18 25 36 25 40 0 4 17 33 38 64 21 31 70 108 108 170 38 62 76 124 84 137 12 20 58 95 147 240 7 11 16 27 20 35 4 8 11 20 15 25 11 13 183 289 191 306 4 8 27 46 52 84 25 39 48 78 52 87 3 10 9 18 14 18 5 0 9 5 9 10 0 6 20 41 45 79 25 38 45 73 45 80 0 6 4 11 8 11 5 0 16 15 25 33 9 17 23 41 29 52 7 10 34 52 61 93 26 40 47 75 47 78 0 2 20 35 45 74 25 39 45 73 45 76 0 2 5 10 10 17 15 18 46 67 125 197 38 63 72 117 75 120 4 3 13 17 21 32 8 15 48 81 89 148 41 66 86 140 99 163 13 23 27 44 30 47 3 3 15 21 25 40 11 19 41 68 67 108 27 39 45 72 41 72 -4 0 -2 4 3 8 11 7 32 39 64 94 23 41 137 224 160 258 10 14 33 51 52 83 42 72 50 85 70 117 55 84 93 146 94 150 1 8 43 74 54 87 6 7 11 14 11 17 0 3 55 94 123 203 68 109 132 213 142 231 11 17 23 32 27 32 4 0 8 6 8 13 0 6 25 50 55 97 30 47 55 90 55 97 0 6 4 13 9 15 4 2 40 55 78 118 119 196 138 225 146 228 4 2 7 9 7 15 0 6 15 33 33 61 57 85 91 141 92 146 0 3 14 25 30 50 16 25 38 61 48 80 11 19 22 37 26 40 3 3 15 22 26 43 11 20 23 37 27 37 5 0 8 6 8 13 0 7 9 23 20 35 12 12 19 22 16 22 -3 0 26 50 65 110 38 61 69 113 69 116 0 3 5 10 10 17 16 18 122 190 128 207 3 8 9 17 12 20 4 3 36 52 70 110 35 58 80 131 101 162 20 31 40 66 44 77 3 12 10 21 14 21 4 0 16 18 27 40 10 22 22 40 27 40 4 0 7 7 7 15 0 8 5 15 10 15 6 0 10 6 10 14 0 7 7 19 15 26 9 7 13 15 11 17 -3 3 0 10 5 17 19 21 99 150 105 168 3 10 9 18 14 18 4 0 11 8 14 18 3 9 12 26 19 37 49 80 63 102 74 113 7 7 13 17 13 22 0 5 13 28 28 52 16 24 38 59 48 78 10 19 25 41 32 49 8 8 18 24 23 35 5 12 41 71 79 131 39 61 76 121 83 135 6 14 16 30 20 35 20 24 217 347 217 355 0 6 3 10 8 10 4 0 21 23 37 51 17 28 40 68 53 88 12 20 25 43 29 51 3 8 12 22 18 30 7 8 49 75 93 148 l81 132 -5659 0 -5660 0 51 -82z" transform="translate(0.000000,1132.000000) scale(0.100000,-0.100000)"/></g></svg>